<svg xmlns="http://www.w3.org/2000/svg" width="580" height="808" viewBox="0 0 580 808" role="img" class="s" aria-label="Cost per task, RUB">
<style>.s{font-family:ui-sans-serif, -apple-system, BlinkMacSystemFont, 'Segoe UI', Helvetica, Arial, sans-serif}.t{font-weight:600;font-size:15px}.l{font-size:12.5px}.v{font-size:12.5px;font-weight:600}.c{font-size:11.5px}text{fill:#0b0b0b}.m{fill:#52514e}rect.bg{fill:#fcfcfb}.s1{fill:#2a78d6}.s2{fill:#eb6834}.s3{fill:#1baf7a}@media (prefers-color-scheme: dark){text{fill:#ffffff}.m{fill:#c3c2b7}rect.bg{fill:#1a1a19}.s1{fill:#3987e5}.s2{fill:#d95926}.s3{fill:#199e70}}</style>
<rect class="bg" x="0" y="0" width="580" height="808" fill="#fcfcfb"/>
<text class="t" x="16.0" y="26.0" fill="#0b0b0b">Cost per task, RUB</text>
<text class="c m" x="16.0" y="44.0" fill="#52514e">what the models charged for the run</text>
<rect class="s1" x="16.0" y="61.0" width="10" height="10" rx="2" fill="#2a78d6"/>
<text class="c m" x="31.0" y="70.0" fill="#52514e">jevcode</text>
<rect class="s2" x="99.4" y="61.0" width="10" height="10" rx="2" fill="#eb6834"/>
<text class="c m" x="114.4" y="70.0" fill="#52514e">opencode-minimax</text>
<rect class="s3" x="247.6" y="61.0" width="10" height="10" rx="2" fill="#1baf7a"/>
<text class="c m" x="262.6" y="70.0" fill="#52514e">opencode-qwen30b</text>
<text class="l m" x="106.0" y="123.0" text-anchor="end" fill="#52514e">cart</text>
<rect class="s1" x="118" y="88.0" width="32.5" height="18" rx="4" fill="#2a78d6"/>
<text class="v" x="158.5" y="102.0" fill="#0b0b0b">0.18</text>
<rect class="s2" x="118" y="110.0" width="2.0" height="18" rx="4" fill="#eb6834"/>
<text class="v" x="128.0" y="124.0" fill="#0b0b0b">0.00</text>
<rect class="s3" x="118" y="132.0" width="2.0" height="18" rx="4" fill="#1baf7a"/>
<text class="v" x="128.0" y="146.0" fill="#0b0b0b">0.00</text>
<text class="l m" x="106.0" y="201.0" text-anchor="end" fill="#52514e">csvparse</text>
<rect class="s1" x="118" y="166.0" width="398.0" height="18" rx="4" fill="#2a78d6"/>
<text class="v" x="524.0" y="180.0" fill="#0b0b0b">2.26</text>
<rect class="s2" x="118" y="188.0" width="2.0" height="18" rx="4" fill="#eb6834"/>
<text class="v" x="128.0" y="202.0" fill="#0b0b0b">0.00</text>
<rect class="s3" x="118" y="210.0" width="2.0" height="18" rx="4" fill="#1baf7a"/>
<text class="v" x="128.0" y="224.0" fill="#0b0b0b">0.00</text>
<text class="l m" x="106.0" y="279.0" text-anchor="end" fill="#52514e">duration</text>
<rect class="s1" x="118" y="244.0" width="154.6" height="18" rx="4" fill="#2a78d6"/>
<text class="v" x="280.6" y="258.0" fill="#0b0b0b">0.88</text>
<rect class="s2" x="118" y="266.0" width="2.0" height="18" rx="4" fill="#eb6834"/>
<text class="v" x="128.0" y="280.0" fill="#0b0b0b">0.00</text>
<rect class="s3" x="118" y="288.0" width="2.0" height="18" rx="4" fill="#1baf7a"/>
<text class="v" x="128.0" y="302.0" fill="#0b0b0b">0.00</text>
<text class="l m" x="106.0" y="357.0" text-anchor="end" fill="#52514e">jsdedupe</text>
<rect class="s1" x="118" y="322.0" width="153.2" height="18" rx="4" fill="#2a78d6"/>
<text class="v" x="279.2" y="336.0" fill="#0b0b0b">0.87</text>
<rect class="s2" x="118" y="344.0" width="2.0" height="18" rx="4" fill="#eb6834"/>
<text class="v" x="128.0" y="358.0" fill="#0b0b0b">0.00</text>
<rect class="s3" x="118" y="366.0" width="2.0" height="18" rx="4" fill="#1baf7a"/>
<text class="v" x="128.0" y="380.0" fill="#0b0b0b">0.00</text>
<text class="l m" x="106.0" y="435.0" text-anchor="end" fill="#52514e">jsonflag</text>
<rect class="s1" x="118" y="400.0" width="136.3" height="18" rx="4" fill="#2a78d6"/>
<text class="v" x="262.3" y="414.0" fill="#0b0b0b">0.78</text>
<rect class="s2" x="118" y="422.0" width="2.0" height="18" rx="4" fill="#eb6834"/>
<text class="v" x="128.0" y="436.0" fill="#0b0b0b">0.00</text>
<rect class="s3" x="118" y="444.0" width="2.0" height="18" rx="4" fill="#1baf7a"/>
<text class="v" x="128.0" y="458.0" fill="#0b0b0b">0.00</text>
<text class="l m" x="106.0" y="513.0" text-anchor="end" fill="#52514e">pagesize</text>
<rect class="s1" x="118" y="478.0" width="360.2" height="18" rx="4" fill="#2a78d6"/>
<text class="v" x="486.2" y="492.0" fill="#0b0b0b">2.05</text>
<rect class="s2" x="118" y="500.0" width="2.0" height="18" rx="4" fill="#eb6834"/>
<text class="v" x="128.0" y="514.0" fill="#0b0b0b">0.00</text>
<rect class="s3" x="118" y="522.0" width="2.0" height="18" rx="4" fill="#1baf7a"/>
<text class="v" x="128.0" y="536.0" fill="#0b0b0b">0.00</text>
<text class="l m" x="106.0" y="591.0" text-anchor="end" fill="#52514e">retry</text>
<rect class="s1" x="118" y="556.0" width="89.0" height="18" rx="4" fill="#2a78d6"/>
<text class="v" x="215.0" y="570.0" fill="#0b0b0b">0.51</text>
<rect class="s2" x="118" y="578.0" width="2.0" height="18" rx="4" fill="#eb6834"/>
<text class="v" x="128.0" y="592.0" fill="#0b0b0b">0.00</text>
<rect class="s3" x="118" y="600.0" width="2.0" height="18" rx="4" fill="#1baf7a"/>
<text class="v" x="128.0" y="614.0" fill="#0b0b0b">0.00</text>
<text class="l m" x="106.0" y="669.0" text-anchor="end" fill="#52514e">slugify</text>
<rect class="s1" x="118" y="634.0" width="164.3" height="18" rx="4" fill="#2a78d6"/>
<text class="v" x="290.3" y="648.0" fill="#0b0b0b">0.93</text>
<rect class="s2" x="118" y="656.0" width="2.0" height="18" rx="4" fill="#eb6834"/>
<text class="v" x="128.0" y="670.0" fill="#0b0b0b">0.00</text>
<rect class="s3" x="118" y="678.0" width="2.0" height="18" rx="4" fill="#1baf7a"/>
<text class="v" x="128.0" y="692.0" fill="#0b0b0b">0.00</text>
<text class="l m" x="106.0" y="747.0" text-anchor="end" fill="#52514e">ttlcache</text>
<rect class="s1" x="118" y="712.0" width="29.4" height="18" rx="4" fill="#2a78d6"/>
<text class="v" x="155.4" y="726.0" fill="#0b0b0b">0.17</text>
<rect class="s2" x="118" y="734.0" width="2.0" height="18" rx="4" fill="#eb6834"/>
<text class="v" x="128.0" y="748.0" fill="#0b0b0b">0.00</text>
<rect class="s3" x="118" y="756.0" width="2.0" height="18" rx="4" fill="#1baf7a"/>
<text class="v" x="128.0" y="770.0" fill="#0b0b0b">0.00</text>
</svg>
