<svg xmlns="http://www.w3.org/2000/svg" width="580" height="610" viewBox="0 0 580 610" role="img" class="s" aria-label="Seconds per task">
<style>.s{font-family:ui-sans-serif, -apple-system, BlinkMacSystemFont, 'Segoe UI', Helvetica, Arial, sans-serif}.t{font-weight:600;font-size:15px}.l{font-size:12.5px}.v{font-size:12.5px;font-weight:600}.c{font-size:11.5px}text{fill:#0b0b0b}.m{fill:#52514e}rect.bg{fill:#fcfcfb}.s1{fill:#2a78d6}.s2{fill:#eb6834}@media (prefers-color-scheme: dark){text{fill:#ffffff}.m{fill:#c3c2b7}rect.bg{fill:#1a1a19}.s1{fill:#3987e5}.s2{fill:#d95926}}</style>
<rect class="bg" x="0" y="0" width="580" height="610" fill="#fcfcfb"/>
<text class="t" x="16.0" y="26.0" fill="#0b0b0b">Seconds per task</text>
<text class="c m" x="16.0" y="44.0" fill="#52514e">wall clock, averaged over the runs; lower is better</text>
<rect class="s1" x="16.0" y="61.0" width="10" height="10" rx="2" fill="#2a78d6"/>
<text class="c m" x="31.0" y="70.0" fill="#52514e">jevcode</text>
<rect class="s2" x="99.4" y="61.0" width="10" height="10" rx="2" fill="#eb6834"/>
<text class="c m" x="114.4" y="70.0" fill="#52514e">opencode-minimax</text>
<text class="l m" x="106.0" y="112.0" text-anchor="end" fill="#52514e">cart</text>
<rect class="s1" x="118" y="88.0" width="110.6" height="18" rx="4" fill="#2a78d6"/>
<text class="v" x="236.6" y="102.0" fill="#0b0b0b">23s</text>
<rect class="s2" x="118" y="110.0" width="185.4" height="18" rx="4" fill="#eb6834"/>
<text class="v" x="311.4" y="124.0" fill="#0b0b0b">39s</text>
<text class="l m" x="106.0" y="168.0" text-anchor="end" fill="#52514e">csvparse</text>
<rect class="s1" x="118" y="144.0" width="244.3" height="18" rx="4" fill="#2a78d6"/>
<text class="v" x="370.3" y="158.0" fill="#0b0b0b">51s</text>
<rect class="s2" x="118" y="166.0" width="114.0" height="18" rx="4" fill="#eb6834"/>
<text class="v" x="240.0" y="180.0" fill="#0b0b0b">24s</text>
<text class="l m" x="106.0" y="224.0" text-anchor="end" fill="#52514e">duration</text>
<rect class="s1" x="118" y="200.0" width="107.8" height="18" rx="4" fill="#2a78d6"/>
<text class="v" x="233.8" y="214.0" fill="#0b0b0b">22s</text>
<rect class="s2" x="118" y="222.0" width="120.7" height="18" rx="4" fill="#eb6834"/>
<text class="v" x="246.7" y="236.0" fill="#0b0b0b">25s</text>
<text class="l m" x="106.0" y="280.0" text-anchor="end" fill="#52514e">jsdedupe</text>
<rect class="s1" x="118" y="256.0" width="68.5" height="18" rx="4" fill="#2a78d6"/>
<text class="v" x="194.5" y="270.0" fill="#0b0b0b">14s</text>
<rect class="s2" x="118" y="278.0" width="101.1" height="18" rx="4" fill="#eb6834"/>
<text class="v" x="227.1" y="292.0" fill="#0b0b0b">21s</text>
<text class="l m" x="106.0" y="336.0" text-anchor="end" fill="#52514e">jsonflag</text>
<rect class="s1" x="118" y="312.0" width="108.2" height="18" rx="4" fill="#2a78d6"/>
<text class="v" x="234.2" y="326.0" fill="#0b0b0b">23s</text>
<rect class="s2" x="118" y="334.0" width="163.3" height="18" rx="4" fill="#eb6834"/>
<text class="v" x="289.3" y="348.0" fill="#0b0b0b">34s</text>
<text class="l m" x="106.0" y="392.0" text-anchor="end" fill="#52514e">pagesize</text>
<rect class="s1" x="118" y="368.0" width="398.0" height="18" rx="4" fill="#2a78d6"/>
<text class="v" x="524.0" y="382.0" fill="#0b0b0b">83s</text>
<rect class="s2" x="118" y="390.0" width="112.1" height="18" rx="4" fill="#eb6834"/>
<text class="v" x="238.1" y="404.0" fill="#0b0b0b">23s</text>
<text class="l m" x="106.0" y="448.0" text-anchor="end" fill="#52514e">retry</text>
<rect class="s1" x="118" y="424.0" width="313.7" height="18" rx="4" fill="#2a78d6"/>
<text class="v" x="439.7" y="438.0" fill="#0b0b0b">66s</text>
<rect class="s2" x="118" y="446.0" width="134.1" height="18" rx="4" fill="#eb6834"/>
<text class="v" x="260.1" y="460.0" fill="#0b0b0b">28s</text>
<text class="l m" x="106.0" y="504.0" text-anchor="end" fill="#52514e">slugify</text>
<rect class="s1" x="118" y="480.0" width="274.0" height="18" rx="4" fill="#2a78d6"/>
<text class="v" x="400.0" y="494.0" fill="#0b0b0b">57s</text>
<rect class="s2" x="118" y="502.0" width="99.6" height="18" rx="4" fill="#eb6834"/>
<text class="v" x="225.6" y="516.0" fill="#0b0b0b">21s</text>
<text class="l m" x="106.0" y="560.0" text-anchor="end" fill="#52514e">ttlcache</text>
<rect class="s1" x="118" y="536.0" width="59.4" height="18" rx="4" fill="#2a78d6"/>
<text class="v" x="185.4" y="550.0" fill="#0b0b0b">12s</text>
<rect class="s2" x="118" y="558.0" width="118.3" height="18" rx="4" fill="#eb6834"/>
<text class="v" x="244.3" y="572.0" fill="#0b0b0b">25s</text>
</svg>
